<?xml version="1.0" encoding="UTF-8"?>
<svg width="147" height="40" viewBox="0 0 147 40" xmlns="http://www.w3.org/2000/svg"><path class="dark" d="M69.853 8.864h-7.919l-3.422 28.315H51.67l3.424-28.315h-8.547l.69-5.685H70.54l-.687 5.685"></path><path d="M74.005 25.56l.58-4.729h5.494l.445-3.621c.295-2.415-.53-3.069-2.892-3.069-2.414 0-3.575.453-3.9 3.069l-1.437 11.72c-.29 2.364.86 2.819 3.025 2.819h8.448l-.666 5.43H71.985c-5.33 0-6.802-2.365-6.165-7.545L67.507 15.9c.727-5.936 5.222-6.89 10.303-6.89 5.433 0 9.907.454 9.113 6.89l-1.184 9.66H74.005m35.008 11.972c-6.54 0-9.391-1.356-8.534-8.35l1.446-11.77c.857-6.993 4-8.402 10.588-8.402 6.541 0 9.329 1.459 8.477 8.401l-1.446 11.771c-.852 6.94-3.992 8.35-10.531 8.35zm5.576-20.02c.296-2.413-.189-3.37-2.706-3.37-2.515 0-3.279.905-3.583 3.37l-1.42 11.57c-.302 2.467.24 3.368 2.754 3.368 2.518 0 3.238-.955 3.534-3.369l1.421-11.57zm22.658 17.252c-1.437 1.862-3.77 2.415-5.83 2.415h-10.312l.665-5.43h6.843c1.91 0 3.195-.2 3.466-2.415.21-1.712-.615-1.962-1.86-2.868l-3.512-2.567c-2.952-2.164-3.714-3.318-3.23-7.242.52-4.276 2.453-7.293 7.128-7.293h9.46l-.67 5.431h-6.035c-1.707 0-3.09.306-3.353 2.314-.192 1.463 1.048 2.055 2.108 2.858 1.517 1.155 3.11 2.174 4.578 3.33 2.432 1.91 2.555 2.567 2.154 5.834-.2 1.613-.52 4.227-1.6 5.633m-43.433 2.415c-1.959 0-3.905-.553-4.909-2.21-.966-1.562-.75-3.323-.52-5.185L91.592 3.66l6.626-2.363-3.372 27.48c-.41 3.322.483 3.018 3.403 3.018l-.662 5.383h-3.774" class="dark"></path><path d="M42.672 14.961c-1.028-.836-1.61-1.442-2.544-2.246-1.158-.735-6.503-1.623-10.01-1.676-2.424.102-4.351-.099-2.869 4.656 1.869 5.99 1.068 14.389-.515 18.866 4.293-5.922 7.955-9.122 15.16-14.16 2.111-1.463 2.525-4.015.778-5.44m-22.685 3.797c-1.257-2.557-4.064-7.352-6.015-7.63-3.955-.226-8.88.647-9.93 1.366a136.1 136.1 0 01-2.95 2.467c-1.747 1.425-1.334 3.976.778 5.443 8.235 5.752 12.72 10.238 17.682 17.681 1.263 1.906 3.397 1.906 4.663 0 .228-.344.458-.676.684-1.009-.476-6.545-2.015-12.495-4.912-18.319M21.704 0c-4.959 0-13.069 6.968-14.5 8.293 1.773-.932 3.843-1.488 6.065-1.953 0 0 1.423-.294 3.369-.542a47.295 47.295 0 015.276-.328c5.735.036 11.011 1.065 14.936 3.093C35.32 7.155 26.66 0 21.704 0" class="light"></path><path d="M146.462 11.691a2.32 2.32 0 01-2.352 2.35 2.318 2.318 0 01-2.35-2.35 2.32 2.32 0 012.35-2.351 2.32 2.32 0 012.352 2.351zm-4.334 0c0 1.125.846 2.016 1.982 2.016 1.138 0 1.985-.89 1.985-2.016 0-1.125-.847-2.016-1.985-2.016-1.136 0-1.982.891-1.982 2.016zm1.465 1.359h-.336v-2.718h1.043c.614 0 .885.265.885.753 0 .48-.316.695-.683.757l.81 1.208h-.393l-.764-1.208h-.562v1.208zm.442-1.491c.41 0 .815-.013.815-.474 0-.38-.315-.469-.643-.469h-.614v.943h.442z" class="dark"></path></svg>